<?xml version="1.0" encoding="utf-8"?>
<!-- Generator: Adobe Illustrator 24.3.0, SVG Export Plug-In . SVG Version: 6.00 Build 0)  -->
<svg version="1.1" id="Layer_1" xmlns="http://www.w3.org/2000/svg" xmlns:xlink="http://www.w3.org/1999/xlink" x="0px" y="0px"
	 viewBox="0 0 97 24" style="enable-background:new 0 0 97 24;" xml:space="preserve">
<style type="text/css">
	.st0{fill:#FFFFFF;}
</style>
<desc>Created with Sketch.</desc>
<g id="Symbols">
	<g id="Regal-Logo">
		<g id="Logo_mini-Copy">
			<g id="airplay" transform="translate(11.000000, 10.000000) scale(1, -1) translate(-11.000000, -10.000000) ">
				<g id="Combined-Shape">
					<path id="path-1_1_" class="st0" d="M4,14c0.6,0,1,0.4,1,1s-0.4,1-1,1H3c-1.7,0-3-1.3-3-3V3c0-1.7,1.3-3,3-3h16
						c1.7,0,3,1.3,3,3v10c0,1.7-1.3,3-3,3h-1c-0.6,0-1-0.4-1-1s0.4-1,1-1h1c0.6,0,1-0.4,1-1V3c0-0.6-0.4-1-1-1H3C2.4,2,2,2.4,2,3v10
						c0,0.6,0.4,1,1,1H4z M11.8,12.4l5,6C17.3,19,16.8,20,16,20H6c-0.8,0-1.3-1-0.8-1.6l5-6C10.6,11.9,11.4,11.9,11.8,12.4z M8.1,18
						h5.7L11,14.6L8.1,18z"/>
				</g>
			</g>
		</g>
		<path id="Regal-Copy-2" class="st0" d="M33,1.4h3.5c1.9,0,3.3,0.2,4.1,0.5s1.5,0.9,2,1.7s0.7,1.7,0.7,2.8c0,1.1-0.3,2.1-0.8,2.8
			S41.1,10.6,40,11l4.1,7.7h-3.6l-3.9-7.3h-0.3v7.3H33V1.4z M36.3,8.2h1c1,0,1.8-0.1,2.2-0.4c0.4-0.3,0.6-0.7,0.6-1.4
			c0-0.4-0.1-0.7-0.3-1S39.3,4.9,39,4.8s-0.9-0.2-1.8-0.2h-0.9V8.2z M59.1,13.2H48.8c0.1,0.9,0.5,1.6,1.2,2.2s1.5,0.8,2.5,0.8
			c1.2,0,2.2-0.4,3.1-1.3l2.7,1.3c-0.7,1-1.5,1.7-2.4,2.1S53.8,19,52.5,19c-2,0-3.6-0.6-4.9-1.9s-1.9-2.8-1.9-4.7
			c0-1.9,0.6-3.6,1.9-4.8s2.8-1.9,4.7-1.9c2,0,3.6,0.6,4.9,1.9s1.9,3,1.9,5.1L59.1,13.2z M55.9,10.7C55.7,10,55.3,9.4,54.7,9
			s-1.3-0.7-2.2-0.7c-0.9,0-1.7,0.2-2.3,0.8c-0.4,0.3-0.8,0.9-1.2,1.7H55.9z M71.1,5.9h3.2v10.9c0,2.2-0.4,3.7-1.3,4.8
			c-1.2,1.4-2.9,2.1-5.3,2.1c-1.3,0-2.3-0.2-3.2-0.5c-0.9-0.3-1.6-0.8-2.2-1.4s-1-1.3-1.3-2.2h3.5c0.3,0.4,0.7,0.6,1.2,0.8
			s1.1,0.3,1.7,0.3c0.9,0,1.6-0.1,2.1-0.4s0.9-0.6,1.1-1s0.3-1.1,0.3-2.2c-0.6,0.6-1.2,1-1.8,1.2s-1.3,0.4-2.1,0.4
			c-1.7,0-3.2-0.6-4.3-1.9s-1.8-2.8-1.8-4.7c0-2,0.6-3.6,1.9-4.9c1.1-1.1,2.5-1.7,4.1-1.7c0.7,0,1.4,0.1,2.1,0.4s1.3,0.7,2,1.3V5.9z
			 M67.8,8.6c-1,0-1.8,0.3-2.5,1s-1,1.5-1,2.5c0,1.1,0.3,1.9,1,2.6s1.5,1,2.5,1c1,0,1.8-0.3,2.5-1s1-1.5,1-2.6c0-1.1-0.3-1.9-1-2.6
			S68.8,8.6,67.8,8.6z M87,5.9h3.2v12.8H87v-1.3c-0.6,0.6-1.3,1-1.9,1.3s-1.3,0.4-2,0.4c-1.6,0-3.1-0.6-4.3-1.9S77,14.2,77,12.3
			c0-2,0.6-3.6,1.7-4.8s2.6-1.9,4.2-1.9c0.8,0,1.5,0.1,2.2,0.4s1.3,0.7,1.9,1.3V5.9z M83.6,8.5c-1,0-1.8,0.3-2.5,1s-1,1.6-1,2.7
			c0,1.1,0.3,2,1,2.7s1.5,1.1,2.5,1.1c1,0,1.8-0.3,2.5-1s1-1.6,1-2.7c0-1.1-0.3-2-1-2.7S84.6,8.5,83.6,8.5z M93.1,1h3.2v17.7h-3.2V1
			z"/>
	</g>
</g>
</svg>
